<?xml version="1.0" encoding="UTF-8" standalone="no"?>
<!DOCTYPE svg PUBLIC "-//W3C//DTD SVG 1.1//EN"
 "http://www.w3.org/Graphics/SVG/1.1/DTD/svg11.dtd">
<!-- Generated by graphviz version 13.1.2 (20250808.2320)
 -->
<!-- Title: G Pages: 1 -->
<svg width="1961pt" height="787pt"
 viewBox="0.00 0.00 1961.00 787.00" xmlns="http://www.w3.org/2000/svg" xmlns:xlink="http://www.w3.org/1999/xlink">
<g id="graph0" class="graph" transform="scale(1 1) rotate(0) translate(21.6 765.35)">
<title>G</title>
<polygon fill="#111111" stroke="none" points="-21.6,21.6 -21.6,-765.35 1939.35,-765.35 1939.35,21.6 -21.6,21.6"/>
<!-- back/src/__tests__/controllers/auth.controller.test.js -->
<g id="node1" class="node">
<title>back/src/__tests__/controllers/auth.controller.test.js</title>
<path fill="none" stroke="#c6c5fe" d="M1003.46,-743.75C1003.46,-743.75 697.29,-743.75 697.29,-743.75 693.33,-743.75 689.38,-739.79 689.38,-735.83 689.38,-735.83 689.38,-727.92 689.38,-727.92 689.38,-723.96 693.33,-720 697.29,-720 697.29,-720 1003.46,-720 1003.46,-720 1007.42,-720 1011.38,-723.96 1011.38,-727.92 1011.38,-727.92 1011.38,-735.83 1011.38,-735.83 1011.38,-739.79 1007.42,-743.75 1003.46,-743.75"/>
<text xml:space="preserve" text-anchor="middle" x="850.38" y="-726.45" font-family="Arial" font-size="14.00" fill="#c6c5fe">back/src/__tests__/controllers/auth.controller.test.js</text>
</g>
<!-- back/src/controllers/authController.js -->
<g id="node2" class="node">
<title>back/src/controllers/authController.js</title>
<path fill="none" stroke="#c6c5fe" d="M1329.58,-703.75C1329.58,-703.75 1111.92,-703.75 1111.92,-703.75 1107.96,-703.75 1104,-699.79 1104,-695.83 1104,-695.83 1104,-687.92 1104,-687.92 1104,-683.96 1107.96,-680 1111.92,-680 1111.92,-680 1329.58,-680 1329.58,-680 1333.54,-680 1337.5,-683.96 1337.5,-687.92 1337.5,-687.92 1337.5,-695.83 1337.5,-695.83 1337.5,-699.79 1333.54,-703.75 1329.58,-703.75"/>
<text xml:space="preserve" text-anchor="middle" x="1220.75" y="-686.45" font-family="Arial" font-size="14.00" fill="#c6c5fe">back/src/controllers/authController.js</text>
</g>
<!-- back/src/__tests__/controllers/auth.controller.test.js&#45;&gt;back/src/controllers/authController.js -->
<g id="edge1" class="edge">
<title>back/src/__tests__/controllers/auth.controller.test.js&#45;&gt;back/src/controllers/authController.js</title>
<path fill="none" stroke="#757575" d="M965.16,-719.52C1006.1,-715.07 1052.52,-710.03 1094.39,-705.49"/>
<polygon fill="#757575" stroke="#757575" points="1094.72,-708.97 1104.29,-704.41 1093.97,-702.01 1094.72,-708.97"/>
</g>
<!-- back/src/services/authService.js -->
<g id="node3" class="node">
<title>back/src/services/authService.js</title>
<path fill="none" stroke="#c6c5fe" d="M1630.58,-681.75C1630.58,-681.75 1438.42,-681.75 1438.42,-681.75 1434.46,-681.75 1430.5,-677.79 1430.5,-673.83 1430.5,-673.83 1430.5,-665.92 1430.5,-665.92 1430.5,-661.96 1434.46,-658 1438.42,-658 1438.42,-658 1630.58,-658 1630.58,-658 1634.54,-658 1638.5,-661.96 1638.5,-665.92 1638.5,-665.92 1638.5,-673.83 1638.5,-673.83 1638.5,-677.79 1634.54,-681.75 1630.58,-681.75"/>
<text xml:space="preserve" text-anchor="middle" x="1534.5" y="-664.45" font-family="Arial" font-size="14.00" fill="#c6c5fe">back/src/services/authService.js</text>
</g>
<!-- back/src/__tests__/controllers/auth.controller.test.js&#45;&gt;back/src/services/authService.js -->
<g id="edge2" class="edge">
<title>back/src/__tests__/controllers/auth.controller.test.js&#45;&gt;back/src/services/authService.js</title>
<path fill="none" stroke="#757575" d="M1011.6,-736.1C1117.32,-736.45 1258.53,-732.25 1381.75,-712.88 1418.21,-707.14 1458.34,-695.53 1488.17,-685.81"/>
<polygon fill="#757575" stroke="#757575" points="1489.25,-689.14 1497.64,-682.67 1487.04,-682.5 1489.25,-689.14"/>
</g>
<!-- back/src/controllers/authController.js&#45;&gt;back/src/services/authService.js -->
<g id="edge40" class="edge">
<title>back/src/controllers/authController.js&#45;&gt;back/src/services/authService.js</title>
<path fill="none" stroke="#757575" d="M1337.83,-683.68C1364.34,-681.81 1392.5,-679.83 1418.94,-677.96"/>
<polygon fill="#757575" stroke="#757575" points="1418.92,-681.47 1428.65,-677.27 1418.43,-674.49 1418.92,-681.47"/>
</g>
<!-- back/src/models/user.models.js -->
<g id="node17" class="node">
<title>back/src/models/user.models.js</title>
<path fill="none" stroke="#cfffac" d="M1897.08,-581.75C1897.08,-581.75 1707.92,-581.75 1707.92,-581.75 1703.96,-581.75 1700,-577.79 1700,-573.83 1700,-573.83 1700,-565.92 1700,-565.92 1700,-561.96 1703.96,-558 1707.92,-558 1707.92,-558 1897.08,-558 1897.08,-558 1901.04,-558 1905,-561.96 1905,-565.92 1905,-565.92 1905,-573.83 1905,-573.83 1905,-577.79 1901.04,-581.75 1897.08,-581.75"/>
<text xml:space="preserve" text-anchor="middle" x="1802.5" y="-564.45" font-family="Arial" font-size="14.00" fill="#cfffac">back/src/models/user.models.js</text>
</g>
<!-- back/src/services/authService.js&#45;&gt;back/src/models/user.models.js -->
<g id="edge53" class="edge">
<title>back/src/services/authService.js&#45;&gt;back/src/models/user.models.js</title>
<path fill="none" stroke="#757575" d="M1602.98,-657.54C1619.01,-653.84 1635.91,-649.29 1651.25,-643.88 1694.42,-628.64 1741.32,-604.16 1771.03,-587.56"/>
<polygon fill="#757575" stroke="#757575" points="1772.49,-590.76 1779.47,-582.79 1769.04,-584.66 1772.49,-590.76"/>
</g>
<!-- back/src/__tests__/controllers/category.controller.test.js -->
<g id="node4" class="node">
<title>back/src/__tests__/controllers/category.controller.test.js</title>
<path fill="none" stroke="#c6c5fe" d="M1015.83,-393.75C1015.83,-393.75 684.92,-393.75 684.92,-393.75 680.96,-393.75 677,-389.79 677,-385.83 677,-385.83 677,-377.92 677,-377.92 677,-373.96 680.96,-370 684.92,-370 684.92,-370 1015.83,-370 1015.83,-370 1019.79,-370 1023.75,-373.96 1023.75,-377.92 1023.75,-377.92 1023.75,-385.83 1023.75,-385.83 1023.75,-389.79 1019.79,-393.75 1015.83,-393.75"/>
<text xml:space="preserve" text-anchor="middle" x="850.38" y="-376.45" font-family="Arial" font-size="14.00" fill="#c6c5fe">back/src/__tests__/controllers/category.controller.test.js</text>
</g>
<!-- back/src/controllers/categoryController.js -->
<g id="node5" class="node">
<title>back/src/controllers/categoryController.js</title>
<path fill="none" stroke="#c6c5fe" d="M1342.33,-333.75C1342.33,-333.75 1099.17,-333.75 1099.17,-333.75 1095.21,-333.75 1091.25,-329.79 1091.25,-325.83 1091.25,-325.83 1091.25,-317.92 1091.25,-317.92 1091.25,-313.96 1095.21,-310 1099.17,-310 1099.17,-310 1342.33,-310 1342.33,-310 1346.29,-310 1350.25,-313.96 1350.25,-317.92 1350.25,-317.92 1350.25,-325.83 1350.25,-325.83 1350.25,-329.79 1346.29,-333.75 1342.33,-333.75"/>
<text xml:space="preserve" text-anchor="middle" x="1220.75" y="-316.45" font-family="Arial" font-size="14.00" fill="#c6c5fe">back/src/controllers/categoryController.js</text>
</g>
<!-- back/src/__tests__/controllers/category.controller.test.js&#45;&gt;back/src/controllers/categoryController.js -->
<g id="edge3" class="edge">
<title>back/src/__tests__/controllers/category.controller.test.js&#45;&gt;back/src/controllers/categoryController.js</title>
<path fill="none" stroke="#757575" d="M941.04,-369.55C967.72,-365.56 996.97,-360.86 1023.75,-355.88 1039.86,-352.87 1043.65,-350.97 1059.75,-347.88 1081.5,-343.69 1105,-339.63 1127.12,-336"/>
<polygon fill="#757575" stroke="#757575" points="1127.39,-339.5 1136.7,-334.44 1126.27,-332.59 1127.39,-339.5"/>
</g>
<!-- back/src/services/categoryService.js -->
<g id="node6" class="node">
<title>back/src/services/categoryService.js</title>
<path fill="none" stroke="#c6c5fe" d="M1643.33,-374.75C1643.33,-374.75 1425.67,-374.75 1425.67,-374.75 1421.71,-374.75 1417.75,-370.79 1417.75,-366.83 1417.75,-366.83 1417.75,-358.92 1417.75,-358.92 1417.75,-354.96 1421.71,-351 1425.67,-351 1425.67,-351 1643.33,-351 1643.33,-351 1647.29,-351 1651.25,-354.96 1651.25,-358.92 1651.25,-358.92 1651.25,-366.83 1651.25,-366.83 1651.25,-370.79 1647.29,-374.75 1643.33,-374.75"/>
<text xml:space="preserve" text-anchor="middle" x="1534.5" y="-357.45" font-family="Arial" font-size="14.00" fill="#c6c5fe">back/src/services/categoryService.js</text>
</g>
<!-- back/src/__tests__/controllers/category.controller.test.js&#45;&gt;back/src/services/categoryService.js -->
<g id="edge4" class="edge">
<title>back/src/__tests__/controllers/category.controller.test.js&#45;&gt;back/src/services/categoryService.js</title>
<path fill="none" stroke="#757575" d="M1023.94,-377.07C1142.88,-373.76 1298.32,-369.43 1406.1,-366.42"/>
<polygon fill="#757575" stroke="#757575" points="1405.95,-369.93 1415.85,-366.15 1405.75,-362.93 1405.95,-369.93"/>
</g>
<!-- back/src/controllers/categoryController.js&#45;&gt;back/src/services/categoryService.js -->
<g id="edge41" class="edge">
<title>back/src/controllers/categoryController.js&#45;&gt;back/src/services/categoryService.js</title>
<path fill="none" stroke="#757575" d="M1315.71,-334.23C1351.21,-338.9 1391.83,-344.24 1428.29,-349.04"/>
<polygon fill="#757575" stroke="#757575" points="1427.59,-352.48 1437.96,-350.31 1428.51,-345.54 1427.59,-352.48"/>
</g>
<!-- back/src/models/category.models.js -->
<g id="node28" class="node">
<title>back/src/models/category.models.js</title>
<path fill="none" stroke="#cfffac" d="M1909.83,-394.75C1909.83,-394.75 1695.17,-394.75 1695.17,-394.75 1691.21,-394.75 1687.25,-390.79 1687.25,-386.83 1687.25,-386.83 1687.25,-378.92 1687.25,-378.92 1687.25,-374.96 1691.21,-371 1695.17,-371 1695.17,-371 1909.83,-371 1909.83,-371 1913.79,-371 1917.75,-374.96 1917.75,-378.92 1917.75,-378.92 1917.75,-386.83 1917.75,-386.83 1917.75,-390.79 1913.79,-394.75 1909.83,-394.75"/>
<text xml:space="preserve" text-anchor="middle" x="1802.5" y="-377.45" font-family="Arial" font-size="14.00" fill="#cfffac">back/src/models/category.models.js</text>
</g>
<!-- back/src/services/categoryService.js&#45;&gt;back/src/models/category.models.js -->
<g id="edge54" class="edge">
<title>back/src/services/categoryService.js&#45;&gt;back/src/models/category.models.js</title>
<path fill="none" stroke="#757575" d="M1651.4,-371.59C1659.39,-372.19 1667.47,-372.8 1675.51,-373.4"/>
<polygon fill="#757575" stroke="#757575" points="1675.1,-376.88 1685.34,-374.14 1675.63,-369.9 1675.1,-376.88"/>
</g>
<!-- back/src/__tests__/controllers/task.controller.test.js -->
<g id="node7" class="node">
<title>back/src/__tests__/controllers/task.controller.test.js</title>
<path fill="none" stroke="#c6c5fe" d="M1002.71,-145.75C1002.71,-145.75 698.04,-145.75 698.04,-145.75 694.08,-145.75 690.12,-141.79 690.12,-137.83 690.12,-137.83 690.12,-129.92 690.12,-129.92 690.12,-125.96 694.08,-122 698.04,-122 698.04,-122 1002.71,-122 1002.71,-122 1006.67,-122 1010.62,-125.96 1010.62,-129.92 1010.62,-129.92 1010.62,-137.83 1010.62,-137.83 1010.62,-141.79 1006.67,-145.75 1002.71,-145.75"/>
<text xml:space="preserve" text-anchor="middle" x="850.38" y="-128.45" font-family="Arial" font-size="14.00" fill="#c6c5fe">back/src/__tests__/controllers/task.controller.test.js</text>
</g>
<!-- back/src/controllers/taskController.js -->
<g id="node8" class="node">
<title>back/src/controllers/taskController.js</title>
<path fill="none" stroke="#c6c5fe" d="M1328.83,-109.75C1328.83,-109.75 1112.67,-109.75 1112.67,-109.75 1108.71,-109.75 1104.75,-105.79 1104.75,-101.83 1104.75,-101.83 1104.75,-93.92 1104.75,-93.92 1104.75,-89.96 1108.71,-86 1112.67,-86 1112.67,-86 1328.83,-86 1328.83,-86 1332.79,-86 1336.75,-89.96 1336.75,-93.92 1336.75,-93.92 1336.75,-101.83 1336.75,-101.83 1336.75,-105.79 1332.79,-109.75 1328.83,-109.75"/>
<text xml:space="preserve" text-anchor="middle" x="1220.75" y="-92.45" font-family="Arial" font-size="14.00" fill="#c6c5fe">back/src/controllers/taskController.js</text>
</g>
<!-- back/src/__tests__/controllers/task.controller.test.js&#45;&gt;back/src/controllers/taskController.js -->
<g id="edge5" class="edge">
<title>back/src/__tests__/controllers/task.controller.test.js&#45;&gt;back/src/controllers/taskController.js</title>
<path fill="none" stroke="#757575" d="M977.89,-121.51C1015.06,-117.88 1055.72,-113.91 1092.91,-110.27"/>
<polygon fill="#757575" stroke="#757575" points="1093.21,-113.76 1102.82,-109.3 1092.53,-106.79 1093.21,-113.76"/>
</g>
<!-- back/src/services/taskService.js -->
<g id="node9" class="node">
<title>back/src/services/taskService.js</title>
<path fill="none" stroke="#c6c5fe" d="M1629.83,-167.75C1629.83,-167.75 1439.17,-167.75 1439.17,-167.75 1435.21,-167.75 1431.25,-163.79 1431.25,-159.83 1431.25,-159.83 1431.25,-151.92 1431.25,-151.92 1431.25,-147.96 1435.21,-144 1439.17,-144 1439.17,-144 1629.83,-144 1629.83,-144 1633.79,-144 1637.75,-147.96 1637.75,-151.92 1637.75,-151.92 1637.75,-159.83 1637.75,-159.83 1637.75,-163.79 1633.79,-167.75 1629.83,-167.75"/>
<text xml:space="preserve" text-anchor="middle" x="1534.5" y="-150.45" font-family="Arial" font-size="14.00" fill="#c6c5fe">back/src/services/taskService.js</text>
</g>
<!-- back/src/__tests__/controllers/task.controller.test.js&#45;&gt;back/src/services/taskService.js -->
<g id="edge6" class="edge">
<title>back/src/__tests__/controllers/task.controller.test.js&#45;&gt;back/src/services/taskService.js</title>
<path fill="none" stroke="#757575" d="M1010.87,-139.02C1136.2,-143.06 1307.7,-148.59 1419.52,-152.2"/>
<polygon fill="#757575" stroke="#757575" points="1419.21,-155.69 1429.32,-152.51 1419.43,-148.69 1419.21,-155.69"/>
</g>
<!-- back/src/controllers/taskController.js&#45;&gt;back/src/services/taskService.js -->
<g id="edge42" class="edge">
<title>back/src/controllers/taskController.js&#45;&gt;back/src/services/taskService.js</title>
<path fill="none" stroke="#757575" d="M1288.25,-110.25C1337.39,-119.39 1404.44,-131.86 1456.02,-141.46"/>
<polygon fill="#757575" stroke="#757575" points="1455.15,-144.86 1465.62,-143.25 1456.43,-137.98 1455.15,-144.86"/>
</g>
<!-- back/src/models/task.models.js -->
<g id="node30" class="node">
<title>back/src/models/task.models.js</title>
<path fill="none" stroke="#cfffac" d="M1896.71,-198.75C1896.71,-198.75 1708.29,-198.75 1708.29,-198.75 1704.33,-198.75 1700.38,-194.79 1700.38,-190.83 1700.38,-190.83 1700.38,-182.92 1700.38,-182.92 1700.38,-178.96 1704.33,-175 1708.29,-175 1708.29,-175 1896.71,-175 1896.71,-175 1900.67,-175 1904.62,-178.96 1904.62,-182.92 1904.62,-182.92 1904.62,-190.83 1904.62,-190.83 1904.62,-194.79 1900.67,-198.75 1896.71,-198.75"/>
<text xml:space="preserve" text-anchor="middle" x="1802.5" y="-181.45" font-family="Arial" font-size="14.00" fill="#cfffac">back/src/models/task.models.js</text>
</g>
<!-- back/src/services/taskService.js&#45;&gt;back/src/models/task.models.js -->
<g id="edge55" class="edge">
<title>back/src/services/taskService.js&#45;&gt;back/src/models/task.models.js</title>
<path fill="none" stroke="#757575" d="M1637.96,-167.82C1654.65,-169.76 1672.02,-171.78 1688.93,-173.76"/>
<polygon fill="#757575" stroke="#757575" points="1688.13,-177.19 1698.46,-174.87 1688.94,-170.23 1688.13,-177.19"/>
</g>
<!-- back/src/__tests__/controllers/user.controller.test.js -->
<g id="node10" class="node">
<title>back/src/__tests__/controllers/user.controller.test.js</title>
<path fill="none" stroke="#c6c5fe" d="M1003.08,-616.75C1003.08,-616.75 697.67,-616.75 697.67,-616.75 693.71,-616.75 689.75,-612.79 689.75,-608.83 689.75,-608.83 689.75,-600.92 689.75,-600.92 689.75,-596.96 693.71,-593 697.67,-593 697.67,-593 1003.08,-593 1003.08,-593 1007.04,-593 1011,-596.96 1011,-600.92 1011,-600.92 1011,-608.83 1011,-608.83 1011,-612.79 1007.04,-616.75 1003.08,-616.75"/>
<text xml:space="preserve" text-anchor="middle" x="850.38" y="-599.45" font-family="Arial" font-size="14.00" fill="#c6c5fe">back/src/__tests__/controllers/user.controller.test.js</text>
</g>
<!-- back/src/controllers/userController.js -->
<g id="node11" class="node">
<title>back/src/controllers/userController.js</title>
<path fill="none" stroke="#c6c5fe" d="M1329.58,-581.75C1329.58,-581.75 1111.92,-581.75 1111.92,-581.75 1107.96,-581.75 1104,-577.79 1104,-573.83 1104,-573.83 1104,-565.92 1104,-565.92 1104,-561.96 1107.96,-558 1111.92,-558 1111.92,-558 1329.58,-558 1329.58,-558 1333.54,-558 1337.5,-561.96 1337.5,-565.92 1337.5,-565.92 1337.5,-573.83 1337.5,-573.83 1337.5,-577.79 1333.54,-581.75 1329.58,-581.75"/>
<text xml:space="preserve" text-anchor="middle" x="1220.75" y="-564.45" font-family="Arial" font-size="14.00" fill="#c6c5fe">back/src/controllers/userController.js</text>
</g>
<!-- back/src/__tests__/controllers/user.controller.test.js&#45;&gt;back/src/controllers/userController.js -->
<g id="edge7" class="edge">
<title>back/src/__tests__/controllers/user.controller.test.js&#45;&gt;back/src/controllers/userController.js</title>
<path fill="none" stroke="#757575" d="M981.51,-592.51C1017.63,-589.08 1056.8,-585.36 1092.74,-581.94"/>
<polygon fill="#757575" stroke="#757575" points="1092.65,-585.47 1102.27,-581.04 1091.99,-578.5 1092.65,-585.47"/>
</g>
<!-- back/src/services/userService.js -->
<g id="node12" class="node">
<title>back/src/services/userService.js</title>
<path fill="none" stroke="#c6c5fe" d="M1630.58,-581.75C1630.58,-581.75 1438.42,-581.75 1438.42,-581.75 1434.46,-581.75 1430.5,-577.79 1430.5,-573.83 1430.5,-573.83 1430.5,-565.92 1430.5,-565.92 1430.5,-561.96 1434.46,-558 1438.42,-558 1438.42,-558 1630.58,-558 1630.58,-558 1634.54,-558 1638.5,-561.96 1638.5,-565.92 1638.5,-565.92 1638.5,-573.83 1638.5,-573.83 1638.5,-577.79 1634.54,-581.75 1630.58,-581.75"/>
<text xml:space="preserve" text-anchor="middle" x="1534.5" y="-564.45" font-family="Arial" font-size="14.00" fill="#c6c5fe">back/src/services/userService.js</text>
</g>
<!-- back/src/__tests__/controllers/user.controller.test.js&#45;&gt;back/src/services/userService.js -->
<g id="edge8" class="edge">
<title>back/src/__tests__/controllers/user.controller.test.js&#45;&gt;back/src/services/userService.js</title>
<path fill="none" stroke="#757575" d="M1011.48,-605.27C1116.84,-604.4 1257.7,-601.06 1381.75,-590.88 1402.33,-589.18 1424.38,-586.59 1445.12,-583.79"/>
<polygon fill="#757575" stroke="#757575" points="1445.56,-587.26 1454.98,-582.43 1444.6,-580.33 1445.56,-587.26"/>
</g>
<!-- back/src/controllers/userController.js&#45;&gt;back/src/services/userService.js -->
<g id="edge43" class="edge">
<title>back/src/controllers/userController.js&#45;&gt;back/src/services/userService.js</title>
<path fill="none" stroke="#757575" d="M1337.83,-569.88C1364.34,-569.88 1392.5,-569.88 1418.94,-569.88"/>
<polygon fill="#757575" stroke="#757575" points="1418.65,-573.38 1428.65,-569.88 1418.65,-566.38 1418.65,-573.38"/>
</g>
<!-- back/src/services/userService.js&#45;&gt;back/src/models/user.models.js -->
<g id="edge56" class="edge">
<title>back/src/services/userService.js&#45;&gt;back/src/models/user.models.js</title>
<path fill="none" stroke="#757575" d="M1638.72,-569.88C1654.98,-569.88 1671.86,-569.88 1688.33,-569.88"/>
<polygon fill="#757575" stroke="#757575" points="1688.13,-573.38 1698.13,-569.88 1688.13,-566.38 1688.13,-573.38"/>
</g>
<!-- back/src/__tests__/db.setup.js -->
<g id="node13" class="node">
<title>back/src/__tests__/db.setup.js</title>
<path fill="none" stroke="#cfffac" d="M1625.33,-457.75C1625.33,-457.75 1443.67,-457.75 1443.67,-457.75 1439.71,-457.75 1435.75,-453.79 1435.75,-449.83 1435.75,-449.83 1435.75,-441.92 1435.75,-441.92 1435.75,-437.96 1439.71,-434 1443.67,-434 1443.67,-434 1625.33,-434 1625.33,-434 1629.29,-434 1633.25,-437.96 1633.25,-441.92 1633.25,-441.92 1633.25,-449.83 1633.25,-449.83 1633.25,-453.79 1629.29,-457.75 1625.33,-457.75"/>
<text xml:space="preserve" text-anchor="middle" x="1534.5" y="-440.45" font-family="Arial" font-size="14.00" fill="#cfffac">back/src/__tests__/db.setup.js</text>
</g>
<!-- back/src/__tests__/middlewares/auth.middleware.test.js -->
<g id="node14" class="node">
<title>back/src/__tests__/middlewares/auth.middleware.test.js</title>
<path fill="none" stroke="#c6c5fe" d="M633.08,-187.75C633.08,-187.75 297.67,-187.75 297.67,-187.75 293.71,-187.75 289.75,-183.79 289.75,-179.83 289.75,-179.83 289.75,-171.92 289.75,-171.92 289.75,-167.96 293.71,-164 297.67,-164 297.67,-164 633.08,-164 633.08,-164 637.04,-164 641,-167.96 641,-171.92 641,-171.92 641,-179.83 641,-179.83 641,-183.79 637.04,-187.75 633.08,-187.75"/>
<text xml:space="preserve" text-anchor="middle" x="465.38" y="-170.45" font-family="Arial" font-size="14.00" fill="#c6c5fe">back/src/__tests__/middlewares/auth.middleware.test.js</text>
</g>
<!-- back/src/middlewares/auth.js -->
<g id="node15" class="node">
<title>back/src/middlewares/auth.js</title>
<path fill="none" stroke="#cfffac" d="M937.46,-187.75C937.46,-187.75 763.29,-187.75 763.29,-187.75 759.33,-187.75 755.38,-183.79 755.38,-179.83 755.38,-179.83 755.38,-171.92 755.38,-171.92 755.38,-167.96 759.33,-164 763.29,-164 763.29,-164 937.46,-164 937.46,-164 941.42,-164 945.38,-167.96 945.38,-171.92 945.38,-171.92 945.38,-179.83 945.38,-179.83 945.38,-183.79 941.42,-187.75 937.46,-187.75"/>
<text xml:space="preserve" text-anchor="middle" x="850.38" y="-170.45" font-family="Arial" font-size="14.00" fill="#cfffac">back/src/middlewares/auth.js</text>
</g>
<!-- back/src/__tests__/middlewares/auth.middleware.test.js&#45;&gt;back/src/middlewares/auth.js -->
<g id="edge9" class="edge">
<title>back/src/__tests__/middlewares/auth.middleware.test.js&#45;&gt;back/src/middlewares/auth.js</title>
<path fill="none" stroke="#757575" d="M641.34,-175.88C676.19,-175.88 711.78,-175.88 743.44,-175.88"/>
<polygon fill="#757575" stroke="#757575" points="743.4,-179.38 753.4,-175.88 743.4,-172.38 743.4,-179.38"/>
</g>
<!-- back/src/__tests__/models/user.model.test.js -->
<g id="node16" class="node">
<title>back/src/__tests__/models/user.model.test.js</title>
<path fill="none" stroke="#c6c5fe" d="M1355.83,-497.75C1355.83,-497.75 1085.67,-497.75 1085.67,-497.75 1081.71,-497.75 1077.75,-493.79 1077.75,-489.83 1077.75,-489.83 1077.75,-481.92 1077.75,-481.92 1077.75,-477.96 1081.71,-474 1085.67,-474 1085.67,-474 1355.83,-474 1355.83,-474 1359.79,-474 1363.75,-477.96 1363.75,-481.92 1363.75,-481.92 1363.75,-489.83 1363.75,-489.83 1363.75,-493.79 1359.79,-497.75 1355.83,-497.75"/>
<text xml:space="preserve" text-anchor="middle" x="1220.75" y="-480.45" font-family="Arial" font-size="14.00" fill="#c6c5fe">back/src/__tests__/models/user.model.test.js</text>
</g>
<!-- back/src/__tests__/models/user.model.test.js&#45;&gt;back/src/__tests__/db.setup.js -->
<g id="edge10" class="edge">
<title>back/src/__tests__/models/user.model.test.js&#45;&gt;back/src/__tests__/db.setup.js</title>
<path fill="none" stroke="#757575" d="M1317.83,-473.55C1352.05,-469.16 1390.81,-464.18 1425.94,-459.68"/>
<polygon fill="#757575" stroke="#757575" points="1426.23,-463.17 1435.7,-458.42 1425.34,-456.22 1426.23,-463.17"/>
</g>
<!-- back/src/__tests__/models/user.model.test.js&#45;&gt;back/src/models/user.models.js -->
<g id="edge11" class="edge">
<title>back/src/__tests__/models/user.model.test.js&#45;&gt;back/src/models/user.models.js</title>
<path fill="none" stroke="#757575" d="M1364.25,-494.79C1448.24,-501.46 1556.32,-512.49 1651.25,-529.88 1685.04,-536.06 1722.36,-545.98 1751.35,-554.39"/>
<polygon fill="#757575" stroke="#757575" points="1750,-557.64 1760.58,-557.11 1751.97,-550.93 1750,-557.64"/>
</g>
<!-- back/src/__tests__/routes/auth.routes.test.js -->
<g id="node18" class="node">
<title>back/src/__tests__/routes/auth.routes.test.js</title>
<path fill="none" stroke="#c6c5fe" d="M597.46,-683.75C597.46,-683.75 333.29,-683.75 333.29,-683.75 329.33,-683.75 325.38,-679.79 325.38,-675.83 325.38,-675.83 325.38,-667.92 325.38,-667.92 325.38,-663.96 329.33,-660 333.29,-660 333.29,-660 597.46,-660 597.46,-660 601.42,-660 605.38,-663.96 605.38,-667.92 605.38,-667.92 605.38,-675.83 605.38,-675.83 605.38,-679.79 601.42,-683.75 597.46,-683.75"/>
<text xml:space="preserve" text-anchor="middle" x="465.38" y="-666.45" font-family="Arial" font-size="14.00" fill="#c6c5fe">back/src/__tests__/routes/auth.routes.test.js</text>
</g>
<!-- back/src/__tests__/routes/auth.routes.test.js&#45;&gt;back/src/controllers/authController.js -->
<g id="edge12" class="edge">
<title>back/src/__tests__/routes/auth.routes.test.js&#45;&gt;back/src/controllers/authController.js</title>
<path fill="none" stroke="#757575" d="M605.87,-675.58C745.19,-679.28 957.49,-684.91 1092.38,-688.49"/>
<polygon fill="#757575" stroke="#757575" points="1091.96,-691.98 1102.05,-688.75 1092.15,-684.99 1091.96,-691.98"/>
</g>
<!-- back/src/routes/authRoutes.js -->
<g id="node19" class="node">
<title>back/src/routes/authRoutes.js</title>
<path fill="none" stroke="#c6c5fe" d="M939.33,-663.75C939.33,-663.75 761.42,-663.75 761.42,-663.75 757.46,-663.75 753.5,-659.79 753.5,-655.83 753.5,-655.83 753.5,-647.92 753.5,-647.92 753.5,-643.96 757.46,-640 761.42,-640 761.42,-640 939.33,-640 939.33,-640 943.29,-640 947.25,-643.96 947.25,-647.92 947.25,-647.92 947.25,-655.83 947.25,-655.83 947.25,-659.79 943.29,-663.75 939.33,-663.75"/>
<text xml:space="preserve" text-anchor="middle" x="850.38" y="-646.45" font-family="Arial" font-size="14.00" fill="#c6c5fe">back/src/routes/authRoutes.js</text>
</g>
<!-- back/src/__tests__/routes/auth.routes.test.js&#45;&gt;back/src/routes/authRoutes.js -->
<g id="edge13" class="edge">
<title>back/src/__tests__/routes/auth.routes.test.js&#45;&gt;back/src/routes/authRoutes.js</title>
<path fill="none" stroke="#757575" d="M605.73,-664.6C650.6,-662.26 699.6,-659.7 741.81,-657.49"/>
<polygon fill="#757575" stroke="#757575" points="741.93,-660.99 751.73,-656.97 741.56,-654 741.93,-660.99"/>
</g>
<!-- back/src/routes/authRoutes.js&#45;&gt;back/src/controllers/authController.js -->
<g id="edge44" class="edge">
<title>back/src/routes/authRoutes.js&#45;&gt;back/src/controllers/authController.js</title>
<path fill="none" stroke="#757575" d="M947.68,-662.33C992.58,-667.21 1046.58,-673.07 1094.59,-678.28"/>
<polygon fill="#757575" stroke="#757575" points="1094.19,-681.76 1104.51,-679.36 1094.95,-674.8 1094.19,-681.76"/>
</g>
<!-- back/src/__tests__/routes/category.routes.test.js -->
<g id="node20" class="node">
<title>back/src/__tests__/routes/category.routes.test.js</title>
<path fill="none" stroke="#c6c5fe" d="M609.83,-333.75C609.83,-333.75 320.92,-333.75 320.92,-333.75 316.96,-333.75 313,-329.79 313,-325.83 313,-325.83 313,-317.92 313,-317.92 313,-313.96 316.96,-310 320.92,-310 320.92,-310 609.83,-310 609.83,-310 613.79,-310 617.75,-313.96 617.75,-317.92 617.75,-317.92 617.75,-325.83 617.75,-325.83 617.75,-329.79 613.79,-333.75 609.83,-333.75"/>
<text xml:space="preserve" text-anchor="middle" x="465.38" y="-316.45" font-family="Arial" font-size="14.00" fill="#c6c5fe">back/src/__tests__/routes/category.routes.test.js</text>
</g>
<!-- back/src/__tests__/routes/category.routes.test.js&#45;&gt;back/src/controllers/categoryController.js -->
<g id="edge14" class="edge">
<title>back/src/__tests__/routes/category.routes.test.js&#45;&gt;back/src/controllers/categoryController.js</title>
<path fill="none" stroke="#757575" d="M618.24,-322.68C638,-322.76 657.99,-322.83 677,-322.88 831.11,-323.24 869.64,-323.27 1023.75,-322.88 1041.8,-322.83 1060.78,-322.76 1079.54,-322.68"/>
<polygon fill="#757575" stroke="#757575" points="1079.36,-326.18 1089.35,-322.63 1079.33,-319.18 1079.36,-326.18"/>
</g>
<!-- back/src/routes/categoryRoutes.js -->
<g id="node21" class="node">
<title>back/src/routes/categoryRoutes.js</title>
<path fill="none" stroke="#c6c5fe" d="M952.08,-313.75C952.08,-313.75 748.67,-313.75 748.67,-313.75 744.71,-313.75 740.75,-309.79 740.75,-305.83 740.75,-305.83 740.75,-297.92 740.75,-297.92 740.75,-293.96 744.71,-290 748.67,-290 748.67,-290 952.08,-290 952.08,-290 956.04,-290 960,-293.96 960,-297.92 960,-297.92 960,-305.83 960,-305.83 960,-309.79 956.04,-313.75 952.08,-313.75"/>
<text xml:space="preserve" text-anchor="middle" x="850.38" y="-296.45" font-family="Arial" font-size="14.00" fill="#c6c5fe">back/src/routes/categoryRoutes.js</text>
</g>
<!-- back/src/__tests__/routes/category.routes.test.js&#45;&gt;back/src/routes/categoryRoutes.js -->
<g id="edge15" class="edge">
<title>back/src/__tests__/routes/category.routes.test.js&#45;&gt;back/src/routes/categoryRoutes.js</title>
<path fill="none" stroke="#757575" d="M618.02,-313.96C654.89,-312.03 693.81,-310 729,-308.16"/>
<polygon fill="#757575" stroke="#757575" points="728.97,-311.67 738.78,-307.65 728.61,-304.68 728.97,-311.67"/>
</g>
<!-- back/src/routes/categoryRoutes.js&#45;&gt;back/src/controllers/categoryController.js -->
<g id="edge45" class="edge">
<title>back/src/routes/categoryRoutes.js&#45;&gt;back/src/controllers/categoryController.js</title>
<path fill="none" stroke="#757575" d="M960.4,-307.79C997.75,-309.82 1040.08,-312.12 1079.54,-314.26"/>
<polygon fill="#757575" stroke="#757575" points="1079.17,-317.75 1089.35,-314.8 1079.55,-310.76 1079.17,-317.75"/>
</g>
<!-- back/src/validators/categoryValidator.js -->
<g id="node33" class="node">
<title>back/src/validators/categoryValidator.js</title>
<path fill="none" stroke="#cfffac" d="M1337.08,-229.75C1337.08,-229.75 1104.42,-229.75 1104.42,-229.75 1100.46,-229.75 1096.5,-225.79 1096.5,-221.83 1096.5,-221.83 1096.5,-213.92 1096.5,-213.92 1096.5,-209.96 1100.46,-206 1104.42,-206 1104.42,-206 1337.08,-206 1337.08,-206 1341.04,-206 1345,-209.96 1345,-213.92 1345,-213.92 1345,-221.83 1345,-221.83 1345,-225.79 1341.04,-229.75 1337.08,-229.75"/>
<text xml:space="preserve" text-anchor="middle" x="1220.75" y="-212.45" font-family="Arial" font-size="14.00" fill="#cfffac">back/src/validators/categoryValidator.js</text>
</g>
<!-- back/src/routes/categoryRoutes.js&#45;&gt;back/src/validators/categoryValidator.js -->
<g id="edge46" class="edge">
<title>back/src/routes/categoryRoutes.js&#45;&gt;back/src/validators/categoryValidator.js</title>
<path fill="none" stroke="#757575" d="M960.41,-300.88C982.3,-297.35 1004.48,-291.19 1023.75,-280.88 1045.42,-269.27 1038.13,-250.58 1059.75,-238.88 1067.81,-234.51 1076.42,-230.92 1085.3,-227.98"/>
<polygon fill="#757575" stroke="#757575" points="1086.24,-231.35 1094.82,-225.13 1084.23,-224.64 1086.24,-231.35"/>
</g>
<!-- back/src/__tests__/routes/task.routes.test.js -->
<g id="node22" class="node">
<title>back/src/__tests__/routes/task.routes.test.js</title>
<path fill="none" stroke="#c6c5fe" d="M596.71,-83.75C596.71,-83.75 334.04,-83.75 334.04,-83.75 330.08,-83.75 326.12,-79.79 326.12,-75.83 326.12,-75.83 326.12,-67.92 326.12,-67.92 326.12,-63.96 330.08,-60 334.04,-60 334.04,-60 596.71,-60 596.71,-60 600.67,-60 604.62,-63.96 604.62,-67.92 604.62,-67.92 604.62,-75.83 604.62,-75.83 604.62,-79.79 600.67,-83.75 596.71,-83.75"/>
<text xml:space="preserve" text-anchor="middle" x="465.38" y="-66.45" font-family="Arial" font-size="14.00" fill="#c6c5fe">back/src/__tests__/routes/task.routes.test.js</text>
</g>
<!-- back/src/__tests__/routes/task.routes.test.js&#45;&gt;back/src/controllers/taskController.js -->
<g id="edge16" class="edge">
<title>back/src/__tests__/routes/task.routes.test.js&#45;&gt;back/src/controllers/taskController.js</title>
<path fill="none" stroke="#757575" d="M604.85,-66.24C717.74,-62.94 881.23,-61.1 1023.75,-70.88 1061.01,-73.43 1101.98,-78.68 1136.78,-83.89"/>
<polygon fill="#757575" stroke="#757575" points="1135.94,-87.3 1146.36,-85.34 1137,-80.38 1135.94,-87.3"/>
</g>
<!-- back/src/routes/taskRoutes.js -->
<g id="node23" class="node">
<title>back/src/routes/taskRoutes.js</title>
<path fill="none" stroke="#c6c5fe" d="M938.58,-103.75C938.58,-103.75 762.17,-103.75 762.17,-103.75 758.21,-103.75 754.25,-99.79 754.25,-95.83 754.25,-95.83 754.25,-87.92 754.25,-87.92 754.25,-83.96 758.21,-80 762.17,-80 762.17,-80 938.58,-80 938.58,-80 942.54,-80 946.5,-83.96 946.5,-87.92 946.5,-87.92 946.5,-95.83 946.5,-95.83 946.5,-99.79 942.54,-103.75 938.58,-103.75"/>
<text xml:space="preserve" text-anchor="middle" x="850.38" y="-86.45" font-family="Arial" font-size="14.00" fill="#c6c5fe">back/src/routes/taskRoutes.js</text>
</g>
<!-- back/src/__tests__/routes/task.routes.test.js&#45;&gt;back/src/routes/taskRoutes.js -->
<g id="edge17" class="edge">
<title>back/src/__tests__/routes/task.routes.test.js&#45;&gt;back/src/routes/taskRoutes.js</title>
<path fill="none" stroke="#757575" d="M604.92,-79.11C650.33,-81.48 700.06,-84.08 742.74,-86.31"/>
<polygon fill="#757575" stroke="#757575" points="742.32,-89.79 752.49,-86.82 742.69,-82.8 742.32,-89.79"/>
</g>
<!-- back/src/routes/taskRoutes.js&#45;&gt;back/src/controllers/taskController.js -->
<g id="edge47" class="edge">
<title>back/src/routes/taskRoutes.js&#45;&gt;back/src/controllers/taskController.js</title>
<path fill="none" stroke="#757575" d="M946.72,-93.43C991.32,-94.15 1045.07,-95.03 1093.03,-95.81"/>
<polygon fill="#757575" stroke="#757575" points="1092.88,-99.31 1102.93,-95.97 1092.99,-92.31 1092.88,-99.31"/>
</g>
<!-- back/src/validators/taskValidator.js -->
<g id="node35" class="node">
<title>back/src/validators/taskValidator.js</title>
<path fill="none" stroke="#cfffac" d="M1323.58,-48.75C1323.58,-48.75 1117.92,-48.75 1117.92,-48.75 1113.96,-48.75 1110,-44.79 1110,-40.83 1110,-40.83 1110,-32.92 1110,-32.92 1110,-28.96 1113.96,-25 1117.92,-25 1117.92,-25 1323.58,-25 1323.58,-25 1327.54,-25 1331.5,-28.96 1331.5,-32.92 1331.5,-32.92 1331.5,-40.83 1331.5,-40.83 1331.5,-44.79 1327.54,-48.75 1323.58,-48.75"/>
<text xml:space="preserve" text-anchor="middle" x="1220.75" y="-31.45" font-family="Arial" font-size="14.00" fill="#cfffac">back/src/validators/taskValidator.js</text>
</g>
<!-- back/src/routes/taskRoutes.js&#45;&gt;back/src/validators/taskValidator.js -->
<g id="edge48" class="edge">
<title>back/src/routes/taskRoutes.js&#45;&gt;back/src/validators/taskValidator.js</title>
<path fill="none" stroke="#757575" d="M934.05,-79.53C990.94,-71.04 1066.63,-59.74 1125.81,-50.9"/>
<polygon fill="#757575" stroke="#757575" points="1126.17,-54.39 1135.54,-49.45 1125.13,-47.46 1126.17,-54.39"/>
</g>
<!-- back/src/__tests__/routes/user.routes.test.js -->
<g id="node24" class="node">
<title>back/src/__tests__/routes/user.routes.test.js</title>
<path fill="none" stroke="#c6c5fe" d="M597.08,-534.75C597.08,-534.75 333.67,-534.75 333.67,-534.75 329.71,-534.75 325.75,-530.79 325.75,-526.83 325.75,-526.83 325.75,-518.92 325.75,-518.92 325.75,-514.96 329.71,-511 333.67,-511 333.67,-511 597.08,-511 597.08,-511 601.04,-511 605,-514.96 605,-518.92 605,-518.92 605,-526.83 605,-526.83 605,-530.79 601.04,-534.75 597.08,-534.75"/>
<text xml:space="preserve" text-anchor="middle" x="465.38" y="-517.45" font-family="Arial" font-size="14.00" fill="#c6c5fe">back/src/__tests__/routes/user.routes.test.js</text>
</g>
<!-- back/src/__tests__/routes/user.routes.test.js&#45;&gt;back/src/controllers/userController.js -->
<g id="edge18" class="edge">
<title>back/src/__tests__/routes/user.routes.test.js&#45;&gt;back/src/controllers/userController.js</title>
<path fill="none" stroke="#757575" d="M605.43,-531.55C744.8,-540.24 957.5,-553.51 1092.52,-561.94"/>
<polygon fill="#757575" stroke="#757575" points="1092.01,-565.41 1102.21,-562.54 1092.45,-558.43 1092.01,-565.41"/>
</g>
<!-- back/src/routes/userRoutes.js -->
<g id="node25" class="node">
<title>back/src/routes/userRoutes.js</title>
<path fill="none" stroke="#c6c5fe" d="M939.33,-503.75C939.33,-503.75 761.42,-503.75 761.42,-503.75 757.46,-503.75 753.5,-499.79 753.5,-495.83 753.5,-495.83 753.5,-487.92 753.5,-487.92 753.5,-483.96 757.46,-480 761.42,-480 761.42,-480 939.33,-480 939.33,-480 943.29,-480 947.25,-483.96 947.25,-487.92 947.25,-487.92 947.25,-495.83 947.25,-495.83 947.25,-499.79 943.29,-503.75 939.33,-503.75"/>
<text xml:space="preserve" text-anchor="middle" x="850.38" y="-486.45" font-family="Arial" font-size="14.00" fill="#c6c5fe">back/src/routes/userRoutes.js</text>
</g>
<!-- back/src/__tests__/routes/user.routes.test.js&#45;&gt;back/src/routes/userRoutes.js -->
<g id="edge19" class="edge">
<title>back/src/__tests__/routes/user.routes.test.js&#45;&gt;back/src/routes/userRoutes.js</title>
<path fill="none" stroke="#757575" d="M605.46,-511.62C650.35,-507.98 699.39,-504.01 741.66,-500.59"/>
<polygon fill="#757575" stroke="#757575" points="741.91,-504.08 751.6,-499.79 741.35,-497.11 741.91,-504.08"/>
</g>
<!-- back/src/routes/userRoutes.js&#45;&gt;back/src/controllers/userController.js -->
<g id="edge49" class="edge">
<title>back/src/routes/userRoutes.js&#45;&gt;back/src/controllers/userController.js</title>
<path fill="none" stroke="#757575" d="M894.96,-504.14C951.15,-519.9 1043.57,-545.62 1059.75,-548.88 1072.41,-551.42 1085.7,-553.74 1098.98,-555.82"/>
<polygon fill="#757575" stroke="#757575" points="1098.21,-559.24 1108.62,-557.28 1099.26,-552.32 1098.21,-559.24"/>
</g>
<!-- back/src/validators/userValidator.js -->
<g id="node37" class="node">
<title>back/src/validators/userValidator.js</title>
<path fill="none" stroke="#cfffac" d="M1324.33,-413.75C1324.33,-413.75 1117.17,-413.75 1117.17,-413.75 1113.21,-413.75 1109.25,-409.79 1109.25,-405.83 1109.25,-405.83 1109.25,-397.92 1109.25,-397.92 1109.25,-393.96 1113.21,-390 1117.17,-390 1117.17,-390 1324.33,-390 1324.33,-390 1328.29,-390 1332.25,-393.96 1332.25,-397.92 1332.25,-397.92 1332.25,-405.83 1332.25,-405.83 1332.25,-409.79 1328.29,-413.75 1324.33,-413.75"/>
<text xml:space="preserve" text-anchor="middle" x="1220.75" y="-396.45" font-family="Arial" font-size="14.00" fill="#cfffac">back/src/validators/userValidator.js</text>
</g>
<!-- back/src/routes/userRoutes.js&#45;&gt;back/src/validators/userValidator.js -->
<g id="edge50" class="edge">
<title>back/src/routes/userRoutes.js&#45;&gt;back/src/validators/userValidator.js</title>
<path fill="none" stroke="#757575" d="M913.03,-479.52C946.55,-471.71 988.29,-460.18 1023.75,-444.88 1040.97,-437.45 1042.07,-429.12 1059.75,-422.88 1071.93,-418.57 1084.91,-415.14 1098,-412.4"/>
<polygon fill="#757575" stroke="#757575" points="1098.38,-415.9 1107.53,-410.55 1097.05,-409.02 1098.38,-415.9"/>
</g>
<!-- back/src/__tests__/services/auth.service.test.js -->
<g id="node26" class="node">
<title>back/src/__tests__/services/auth.service.test.js</title>
<path fill="none" stroke="#c6c5fe" d="M1361.46,-661.75C1361.46,-661.75 1080.04,-661.75 1080.04,-661.75 1076.08,-661.75 1072.12,-657.79 1072.12,-653.83 1072.12,-653.83 1072.12,-645.92 1072.12,-645.92 1072.12,-641.96 1076.08,-638 1080.04,-638 1080.04,-638 1361.46,-638 1361.46,-638 1365.42,-638 1369.38,-641.96 1369.38,-645.92 1369.38,-645.92 1369.38,-653.83 1369.38,-653.83 1369.38,-657.79 1365.42,-661.75 1361.46,-661.75"/>
<text xml:space="preserve" text-anchor="middle" x="1220.75" y="-644.45" font-family="Arial" font-size="14.00" fill="#c6c5fe">back/src/__tests__/services/auth.service.test.js</text>
</g>
<!-- back/src/__tests__/services/auth.service.test.js&#45;&gt;back/src/services/authService.js -->
<g id="edge21" class="edge">
<title>back/src/__tests__/services/auth.service.test.js&#45;&gt;back/src/services/authService.js</title>
<path fill="none" stroke="#757575" d="M1369.86,-659.38C1386.3,-660.43 1402.85,-661.49 1418.78,-662.52"/>
<polygon fill="#757575" stroke="#757575" points="1418.55,-666.01 1428.75,-663.15 1419,-659.02 1418.55,-666.01"/>
</g>
<!-- back/src/__tests__/services/auth.service.test.js&#45;&gt;back/src/models/user.models.js -->
<g id="edge20" class="edge">
<title>back/src/__tests__/services/auth.service.test.js&#45;&gt;back/src/models/user.models.js</title>
<path fill="none" stroke="#757575" d="M1312.25,-637.51C1399.18,-625.61 1534.2,-607.09 1651.25,-590.88 1667.73,-588.59 1685.22,-586.16 1702.23,-583.78"/>
<polygon fill="#757575" stroke="#757575" points="1702.4,-587.29 1711.82,-582.44 1701.43,-580.36 1702.4,-587.29"/>
</g>
<!-- back/src/__tests__/services/category.service.test.js -->
<g id="node27" class="node">
<title>back/src/__tests__/services/category.service.test.js</title>
<path fill="none" stroke="#c6c5fe" d="M1373.83,-455.75C1373.83,-455.75 1067.67,-455.75 1067.67,-455.75 1063.71,-455.75 1059.75,-451.79 1059.75,-447.83 1059.75,-447.83 1059.75,-439.92 1059.75,-439.92 1059.75,-435.96 1063.71,-432 1067.67,-432 1067.67,-432 1373.83,-432 1373.83,-432 1377.79,-432 1381.75,-435.96 1381.75,-439.92 1381.75,-439.92 1381.75,-447.83 1381.75,-447.83 1381.75,-451.79 1377.79,-455.75 1373.83,-455.75"/>
<text xml:space="preserve" text-anchor="middle" x="1220.75" y="-438.45" font-family="Arial" font-size="14.00" fill="#c6c5fe">back/src/__tests__/services/category.service.test.js</text>
</g>
<!-- back/src/__tests__/services/category.service.test.js&#45;&gt;back/src/services/categoryService.js -->
<g id="edge24" class="edge">
<title>back/src/__tests__/services/category.service.test.js&#45;&gt;back/src/services/categoryService.js</title>
<path fill="none" stroke="#757575" d="M1358.62,-431.59C1366.59,-429.13 1374.36,-426.25 1381.75,-422.88 1401.22,-413.98 1398.78,-400.8 1417.75,-390.88 1427.2,-385.93 1437.54,-381.84 1448.03,-378.47"/>
<polygon fill="#757575" stroke="#757575" points="1448.95,-381.84 1457.53,-375.63 1446.95,-375.14 1448.95,-381.84"/>
</g>
<!-- back/src/__tests__/services/category.service.test.js&#45;&gt;back/src/__tests__/db.setup.js -->
<g id="edge22" class="edge">
<title>back/src/__tests__/services/category.service.test.js&#45;&gt;back/src/__tests__/db.setup.js</title>
<path fill="none" stroke="#757575" d="M1382.19,-444.9C1396.41,-445 1410.58,-445.09 1424.22,-445.17"/>
<polygon fill="#757575" stroke="#757575" points="1424.02,-448.67 1434.04,-445.24 1424.06,-441.67 1424.02,-448.67"/>
</g>
<!-- back/src/__tests__/services/category.service.test.js&#45;&gt;back/src/models/category.models.js -->
<g id="edge23" class="edge">
<title>back/src/__tests__/services/category.service.test.js&#45;&gt;back/src/models/category.models.js</title>
<path fill="none" stroke="#757575" d="M1339.07,-431.53C1436.72,-421.26 1575.44,-406.66 1675.44,-396.14"/>
<polygon fill="#757575" stroke="#757575" points="1675.74,-399.63 1685.32,-395.1 1675.01,-392.66 1675.74,-399.63"/>
</g>
<!-- back/src/__tests__/services/task.service.test.js -->
<g id="node29" class="node">
<title>back/src/__tests__/services/task.service.test.js</title>
<path fill="none" stroke="#c6c5fe" d="M1360.71,-271.75C1360.71,-271.75 1080.79,-271.75 1080.79,-271.75 1076.83,-271.75 1072.88,-267.79 1072.88,-263.83 1072.88,-263.83 1072.88,-255.92 1072.88,-255.92 1072.88,-251.96 1076.83,-248 1080.79,-248 1080.79,-248 1360.71,-248 1360.71,-248 1364.67,-248 1368.62,-251.96 1368.62,-255.92 1368.62,-255.92 1368.62,-263.83 1368.62,-263.83 1368.62,-267.79 1364.67,-271.75 1360.71,-271.75"/>
<text xml:space="preserve" text-anchor="middle" x="1220.75" y="-254.45" font-family="Arial" font-size="14.00" fill="#c6c5fe">back/src/__tests__/services/task.service.test.js</text>
</g>
<!-- back/src/__tests__/services/task.service.test.js&#45;&gt;back/src/services/taskService.js -->
<g id="edge27" class="edge">
<title>back/src/__tests__/services/task.service.test.js&#45;&gt;back/src/services/taskService.js</title>
<path fill="none" stroke="#757575" d="M1360.5,-247.55C1367.83,-245.09 1374.97,-242.22 1381.75,-238.88 1402.05,-228.87 1398.89,-215.38 1417.75,-202.88 1437.06,-190.07 1460.4,-179.77 1481.05,-172.11"/>
<polygon fill="#757575" stroke="#757575" points="1482.22,-175.41 1490.46,-168.75 1479.87,-168.82 1482.22,-175.41"/>
</g>
<!-- back/src/__tests__/services/task.service.test.js&#45;&gt;back/src/__tests__/db.setup.js -->
<g id="edge25" class="edge">
<title>back/src/__tests__/services/task.service.test.js&#45;&gt;back/src/__tests__/db.setup.js</title>
<path fill="none" stroke="#757575" d="M1326.56,-272.21C1346.51,-278.37 1366.04,-287.48 1381.75,-300.88 1412.34,-326.97 1390.51,-354.29 1417.75,-383.88 1436.43,-404.16 1463.3,-419.12 1486.45,-429.26"/>
<polygon fill="#757575" stroke="#757575" points="1484.81,-432.37 1495.39,-432.99 1487.51,-425.91 1484.81,-432.37"/>
</g>
<!-- back/src/__tests__/services/task.service.test.js&#45;&gt;back/src/models/task.models.js -->
<g id="edge26" class="edge">
<title>back/src/__tests__/services/task.service.test.js&#45;&gt;back/src/models/task.models.js</title>
<path fill="none" stroke="#757575" d="M1319.77,-247.53C1422.99,-234.54 1585.12,-214.12 1692.35,-200.62"/>
<polygon fill="#757575" stroke="#757575" points="1692.54,-204.12 1702.02,-199.4 1691.66,-197.18 1692.54,-204.12"/>
</g>
<!-- back/src/__tests__/services/user.service.test.js -->
<g id="node31" class="node">
<title>back/src/__tests__/services/user.service.test.js</title>
<path fill="none" stroke="#c6c5fe" d="M1361.08,-539.75C1361.08,-539.75 1080.42,-539.75 1080.42,-539.75 1076.46,-539.75 1072.5,-535.79 1072.5,-531.83 1072.5,-531.83 1072.5,-523.92 1072.5,-523.92 1072.5,-519.96 1076.46,-516 1080.42,-516 1080.42,-516 1361.08,-516 1361.08,-516 1365.04,-516 1369,-519.96 1369,-523.92 1369,-523.92 1369,-531.83 1369,-531.83 1369,-535.79 1365.04,-539.75 1361.08,-539.75"/>
<text xml:space="preserve" text-anchor="middle" x="1220.75" y="-522.45" font-family="Arial" font-size="14.00" fill="#c6c5fe">back/src/__tests__/services/user.service.test.js</text>
</g>
<!-- back/src/__tests__/services/user.service.test.js&#45;&gt;back/src/services/userService.js -->
<g id="edge30" class="edge">
<title>back/src/__tests__/services/user.service.test.js&#45;&gt;back/src/services/userService.js</title>
<path fill="none" stroke="#757575" d="M1316.52,-540.2C1337.97,-543.02 1360.65,-546.03 1381.75,-548.88 1398.51,-551.13 1416.3,-553.57 1433.58,-555.95"/>
<polygon fill="#757575" stroke="#757575" points="1432.96,-559.39 1443.35,-557.29 1433.92,-552.46 1432.96,-559.39"/>
</g>
<!-- back/src/__tests__/services/user.service.test.js&#45;&gt;back/src/__tests__/db.setup.js -->
<g id="edge28" class="edge">
<title>back/src/__tests__/services/user.service.test.js&#45;&gt;back/src/__tests__/db.setup.js</title>
<path fill="none" stroke="#757575" d="M1341.22,-515.57C1354.99,-513.15 1368.74,-510.28 1381.75,-506.88 1423.15,-496.02 1468.41,-476.8 1498.62,-462.83"/>
<polygon fill="#757575" stroke="#757575" points="1499.71,-466.19 1507.28,-458.77 1496.74,-459.85 1499.71,-466.19"/>
</g>
<!-- back/src/__tests__/services/user.service.test.js&#45;&gt;back/src/models/user.models.js -->
<g id="edge29" class="edge">
<title>back/src/__tests__/services/user.service.test.js&#45;&gt;back/src/models/user.models.js</title>
<path fill="none" stroke="#757575" d="M1369.08,-531.8C1452.09,-534.83 1557.6,-540.06 1651.25,-548.88 1670.85,-550.72 1691.81,-553.28 1711.67,-555.98"/>
<polygon fill="#757575" stroke="#757575" points="1711.01,-559.42 1721.4,-557.32 1711.97,-552.48 1711.01,-559.42"/>
</g>
<!-- back/src/__tests__/validators/category.validator.test.js -->
<g id="node32" class="node">
<title>back/src/__tests__/validators/category.validator.test.js</title>
<path fill="none" stroke="#c6c5fe" d="M1011.33,-229.75C1011.33,-229.75 689.42,-229.75 689.42,-229.75 685.46,-229.75 681.5,-225.79 681.5,-221.83 681.5,-221.83 681.5,-213.92 681.5,-213.92 681.5,-209.96 685.46,-206 689.42,-206 689.42,-206 1011.33,-206 1011.33,-206 1015.29,-206 1019.25,-209.96 1019.25,-213.92 1019.25,-213.92 1019.25,-221.83 1019.25,-221.83 1019.25,-225.79 1015.29,-229.75 1011.33,-229.75"/>
<text xml:space="preserve" text-anchor="middle" x="850.38" y="-212.45" font-family="Arial" font-size="14.00" fill="#c6c5fe">back/src/__tests__/validators/category.validator.test.js</text>
</g>
<!-- back/src/__tests__/validators/category.validator.test.js&#45;&gt;back/src/validators/categoryValidator.js -->
<g id="edge31" class="edge">
<title>back/src/__tests__/validators/category.validator.test.js&#45;&gt;back/src/validators/categoryValidator.js</title>
<path fill="none" stroke="#757575" d="M1019.66,-217.88C1041.52,-217.88 1063.68,-217.88 1084.89,-217.88"/>
<polygon fill="#757575" stroke="#757575" points="1084.72,-221.38 1094.72,-217.88 1084.72,-214.38 1084.72,-221.38"/>
</g>
<!-- back/src/__tests__/validators/task.validator.test.js -->
<g id="node34" class="node">
<title>back/src/__tests__/validators/task.validator.test.js</title>
<path fill="none" stroke="#c6c5fe" d="M998.21,-23.75C998.21,-23.75 702.54,-23.75 702.54,-23.75 698.58,-23.75 694.62,-19.79 694.62,-15.83 694.62,-15.83 694.62,-7.92 694.62,-7.92 694.62,-3.96 698.58,0 702.54,0 702.54,0 998.21,0 998.21,0 1002.17,0 1006.12,-3.96 1006.12,-7.92 1006.12,-7.92 1006.12,-15.83 1006.12,-15.83 1006.12,-19.79 1002.17,-23.75 998.21,-23.75"/>
<text xml:space="preserve" text-anchor="middle" x="850.38" y="-6.45" font-family="Arial" font-size="14.00" fill="#c6c5fe">back/src/__tests__/validators/task.validator.test.js</text>
</g>
<!-- back/src/__tests__/validators/task.validator.test.js&#45;&gt;back/src/validators/taskValidator.js -->
<g id="edge32" class="edge">
<title>back/src/__tests__/validators/task.validator.test.js&#45;&gt;back/src/validators/taskValidator.js</title>
<path fill="none" stroke="#757575" d="M1006.53,-22.4C1037.22,-24.49 1069.01,-26.64 1098.38,-28.64"/>
<polygon fill="#757575" stroke="#757575" points="1097.78,-32.11 1108,-29.29 1098.26,-25.12 1097.78,-32.11"/>
</g>
<!-- back/src/__tests__/validators/user.validator.test.js -->
<g id="node36" class="node">
<title>back/src/__tests__/validators/user.validator.test.js</title>
<path fill="none" stroke="#c6c5fe" d="M998.58,-435.75C998.58,-435.75 702.17,-435.75 702.17,-435.75 698.21,-435.75 694.25,-431.79 694.25,-427.83 694.25,-427.83 694.25,-419.92 694.25,-419.92 694.25,-415.96 698.21,-412 702.17,-412 702.17,-412 998.58,-412 998.58,-412 1002.54,-412 1006.5,-415.96 1006.5,-419.92 1006.5,-419.92 1006.5,-427.83 1006.5,-427.83 1006.5,-431.79 1002.54,-435.75 998.58,-435.75"/>
<text xml:space="preserve" text-anchor="middle" x="850.38" y="-418.45" font-family="Arial" font-size="14.00" fill="#c6c5fe">back/src/__tests__/validators/user.validator.test.js</text>
</g>
<!-- back/src/__tests__/validators/user.validator.test.js&#45;&gt;back/src/validators/userValidator.js -->
<g id="edge33" class="edge">
<title>back/src/__tests__/validators/user.validator.test.js&#45;&gt;back/src/validators/userValidator.js</title>
<path fill="none" stroke="#757575" d="M1006.8,-414.59C1037.07,-412.79 1068.4,-410.91 1097.42,-409.18"/>
<polygon fill="#757575" stroke="#757575" points="1097.56,-412.68 1107.33,-408.59 1097.14,-405.69 1097.56,-412.68"/>
</g>
<!-- back/src/app.js -->
<g id="node38" class="node">
<title>back/src/app.js</title>
<path fill="none" stroke="#c6c5fe" d="M510.46,-271.75C510.46,-271.75 420.29,-271.75 420.29,-271.75 416.33,-271.75 412.38,-267.79 412.38,-263.83 412.38,-263.83 412.38,-255.92 412.38,-255.92 412.38,-251.96 416.33,-248 420.29,-248 420.29,-248 510.46,-248 510.46,-248 514.42,-248 518.38,-251.96 518.38,-255.92 518.38,-255.92 518.38,-263.83 518.38,-263.83 518.38,-267.79 514.42,-271.75 510.46,-271.75"/>
<text xml:space="preserve" text-anchor="middle" x="465.38" y="-254.45" font-family="Arial" font-size="14.00" fill="#c6c5fe">back/src/app.js</text>
</g>
<!-- back/src/app.js&#45;&gt;back/src/middlewares/auth.js -->
<g id="edge35" class="edge">
<title>back/src/app.js&#45;&gt;back/src/middlewares/auth.js</title>
<path fill="none" stroke="#757575" d="M518.61,-263.26C554.96,-263.39 603.43,-258.96 641,-238.88 662.68,-227.28 655.33,-208.48 677,-196.88 697.33,-185.99 720.89,-179.73 743.95,-176.31"/>
<polygon fill="#757575" stroke="#757575" points="744.24,-179.8 753.71,-175.05 743.34,-172.86 744.24,-179.8"/>
</g>
<!-- back/src/app.js&#45;&gt;back/src/routes/authRoutes.js -->
<g id="edge36" class="edge">
<title>back/src/app.js&#45;&gt;back/src/routes/authRoutes.js</title>
<path fill="none" stroke="#757575" d="M518.69,-257.23C558.28,-258.3 610.84,-266.85 641,-300.88 737.4,-409.63 576.28,-521.11 677,-625.88 694.1,-643.66 717.78,-652.75 742.13,-656.89"/>
<polygon fill="#757575" stroke="#757575" points="741.45,-660.33 751.84,-658.25 742.42,-653.4 741.45,-660.33"/>
</g>
<!-- back/src/app.js&#45;&gt;back/src/routes/categoryRoutes.js -->
<g id="edge37" class="edge">
<title>back/src/app.js&#45;&gt;back/src/routes/categoryRoutes.js</title>
<path fill="none" stroke="#757575" d="M518.83,-265.63C572.69,-271.53 658.41,-280.93 729.06,-288.68"/>
<polygon fill="#757575" stroke="#757575" points="728.43,-292.13 738.75,-289.74 729.19,-285.17 728.43,-292.13"/>
</g>
<!-- back/src/app.js&#45;&gt;back/src/routes/taskRoutes.js -->
<g id="edge38" class="edge">
<title>back/src/app.js&#45;&gt;back/src/routes/taskRoutes.js</title>
<path fill="none" stroke="#757575" d="M518.59,-267.75C556.83,-270.46 607.66,-267.31 641,-238.88 685.32,-201.08 632.71,-150.7 677,-112.88 695.21,-97.32 718.71,-89.4 742.47,-85.87"/>
<polygon fill="#757575" stroke="#757575" points="742.74,-89.36 752.25,-84.69 741.9,-82.41 742.74,-89.36"/>
</g>
<!-- back/src/app.js&#45;&gt;back/src/routes/userRoutes.js -->
<g id="edge39" class="edge">
<title>back/src/app.js&#45;&gt;back/src/routes/userRoutes.js</title>
<path fill="none" stroke="#757575" d="M518.66,-258.46C557.45,-260.29 608.95,-269.29 641,-300.88 687.98,-347.19 630.85,-397.74 677,-444.88 694.5,-462.75 718.08,-474.03 742.18,-481.09"/>
<polygon fill="#757575" stroke="#757575" points="741.24,-484.46 751.8,-483.66 743.04,-477.7 741.24,-484.46"/>
</g>
<!-- back/src/config/swagger.js -->
<g id="node39" class="node">
<title>back/src/config/swagger.js</title>
<path fill="none" stroke="#cfffac" d="M929.21,-271.75C929.21,-271.75 771.54,-271.75 771.54,-271.75 767.58,-271.75 763.62,-267.79 763.62,-263.83 763.62,-263.83 763.62,-255.92 763.62,-255.92 763.62,-251.96 767.58,-248 771.54,-248 771.54,-248 929.21,-248 929.21,-248 933.17,-248 937.12,-251.96 937.12,-255.92 937.12,-255.92 937.12,-263.83 937.12,-263.83 937.12,-267.79 933.17,-271.75 929.21,-271.75"/>
<text xml:space="preserve" text-anchor="middle" x="850.38" y="-254.45" font-family="Arial" font-size="14.00" fill="#cfffac">back/src/config/swagger.js</text>
</g>
<!-- back/src/app.js&#45;&gt;back/src/config/swagger.js -->
<g id="edge34" class="edge">
<title>back/src/app.js&#45;&gt;back/src/config/swagger.js</title>
<path fill="none" stroke="#757575" d="M518.83,-259.88C578.75,-259.88 678.08,-259.88 752.24,-259.88"/>
<polygon fill="#757575" stroke="#757575" points="751.94,-263.38 761.94,-259.88 751.94,-256.38 751.94,-263.38"/>
</g>
<!-- back/src/config/database.js -->
<g id="node40" class="node">
<title>back/src/config/database.js</title>
<path fill="none" stroke="#cfffac" d="M546.83,-229.75C546.83,-229.75 383.92,-229.75 383.92,-229.75 379.96,-229.75 376,-225.79 376,-221.83 376,-221.83 376,-213.92 376,-213.92 376,-209.96 379.96,-206 383.92,-206 383.92,-206 546.83,-206 546.83,-206 550.79,-206 554.75,-209.96 554.75,-213.92 554.75,-213.92 554.75,-221.83 554.75,-221.83 554.75,-225.79 550.79,-229.75 546.83,-229.75"/>
<text xml:space="preserve" text-anchor="middle" x="465.38" y="-212.45" font-family="Arial" font-size="14.00" fill="#cfffac">back/src/config/database.js</text>
</g>
<!-- back/src/server.js -->
<g id="node41" class="node">
<title>back/src/server.js</title>
<path fill="none" stroke="#c6c5fe" d="M179.08,-250.75C179.08,-250.75 74.67,-250.75 74.67,-250.75 70.71,-250.75 66.75,-246.79 66.75,-242.83 66.75,-242.83 66.75,-234.92 66.75,-234.92 66.75,-230.96 70.71,-227 74.67,-227 74.67,-227 179.08,-227 179.08,-227 183.04,-227 187,-230.96 187,-234.92 187,-234.92 187,-242.83 187,-242.83 187,-246.79 183.04,-250.75 179.08,-250.75"/>
<text xml:space="preserve" text-anchor="middle" x="126.88" y="-233.45" font-family="Arial" font-size="14.00" fill="#c6c5fe">back/src/server.js</text>
</g>
<!-- back/src/server.js&#45;&gt;back/src/app.js -->
<g id="edge51" class="edge">
<title>back/src/server.js&#45;&gt;back/src/app.js</title>
<path fill="none" stroke="#757575" d="M187.26,-242.58C247.08,-246.31 339.08,-252.06 400.47,-255.89"/>
<polygon fill="#757575" stroke="#757575" points="400.23,-259.38 410.43,-256.51 400.67,-252.39 400.23,-259.38"/>
</g>
<!-- back/src/server.js&#45;&gt;back/src/config/database.js -->
<g id="edge52" class="edge">
<title>back/src/server.js&#45;&gt;back/src/config/database.js</title>
<path fill="none" stroke="#757575" d="M187.26,-235.17C236.17,-232.12 306.59,-227.72 364.2,-224.13"/>
<polygon fill="#757575" stroke="#757575" points="364.26,-227.63 374.03,-223.51 363.83,-220.64 364.26,-227.63"/>
</g>
<!-- coverage/lcov&#45;report/block&#45;navigation.js -->
<g id="node42" class="node">
<title>coverage/lcov&#45;report/block&#45;navigation.js</title>
<path fill="none" stroke="#cfffac" d="M245.83,-292.75C245.83,-292.75 7.92,-292.75 7.92,-292.75 3.96,-292.75 0,-288.79 0,-284.83 0,-284.83 0,-276.92 0,-276.92 0,-272.96 3.96,-269 7.92,-269 7.92,-269 245.83,-269 245.83,-269 249.79,-269 253.75,-272.96 253.75,-276.92 253.75,-276.92 253.75,-284.83 253.75,-284.83 253.75,-288.79 249.79,-292.75 245.83,-292.75"/>
<text xml:space="preserve" text-anchor="middle" x="126.88" y="-275.45" font-family="Arial" font-size="14.00" fill="#cfffac">coverage/lcov&#45;report/block&#45;navigation.js</text>
</g>
<!-- coverage/lcov&#45;report/prettify.js -->
<g id="node43" class="node">
<title>coverage/lcov&#45;report/prettify.js</title>
<path fill="none" stroke="#cfffac" d="M216.96,-334.75C216.96,-334.75 36.79,-334.75 36.79,-334.75 32.83,-334.75 28.88,-330.79 28.88,-326.83 28.88,-326.83 28.88,-318.92 28.88,-318.92 28.88,-314.96 32.83,-311 36.79,-311 36.79,-311 216.96,-311 216.96,-311 220.92,-311 224.88,-314.96 224.88,-318.92 224.88,-318.92 224.88,-326.83 224.88,-326.83 224.88,-330.79 220.92,-334.75 216.96,-334.75"/>
<text xml:space="preserve" text-anchor="middle" x="126.88" y="-317.45" font-family="Arial" font-size="14.00" fill="#cfffac">coverage/lcov&#45;report/prettify.js</text>
</g>
<!-- coverage/lcov&#45;report/sorter.js -->
<g id="node44" class="node">
<title>coverage/lcov&#45;report/sorter.js</title>
<path fill="none" stroke="#cfffac" d="M213.96,-376.75C213.96,-376.75 39.79,-376.75 39.79,-376.75 35.83,-376.75 31.88,-372.79 31.88,-368.83 31.88,-368.83 31.88,-360.92 31.88,-360.92 31.88,-356.96 35.83,-353 39.79,-353 39.79,-353 213.96,-353 213.96,-353 217.92,-353 221.88,-356.96 221.88,-360.92 221.88,-360.92 221.88,-368.83 221.88,-368.83 221.88,-372.79 217.92,-376.75 213.96,-376.75"/>
<text xml:space="preserve" text-anchor="middle" x="126.88" y="-359.45" font-family="Arial" font-size="14.00" fill="#cfffac">coverage/lcov&#45;report/sorter.js</text>
</g>
<!-- front/eslint.config.js -->
<g id="node45" class="node">
<title>front/eslint.config.js</title>
<path fill="none" stroke="#cfffac" d="M184.71,-418.75C184.71,-418.75 69.04,-418.75 69.04,-418.75 65.08,-418.75 61.12,-414.79 61.12,-410.83 61.12,-410.83 61.12,-402.92 61.12,-402.92 61.12,-398.96 65.08,-395 69.04,-395 69.04,-395 184.71,-395 184.71,-395 188.67,-395 192.62,-398.96 192.62,-402.92 192.62,-402.92 192.62,-410.83 192.62,-410.83 192.62,-414.79 188.67,-418.75 184.71,-418.75"/>
<text xml:space="preserve" text-anchor="middle" x="126.88" y="-401.45" font-family="Arial" font-size="14.00" fill="#cfffac">front/eslint.config.js</text>
</g>
<!-- front/src/api/client.js -->
<g id="node46" class="node">
<title>front/src/api/client.js</title>
<path fill="none" stroke="#cfffac" d="M186.58,-460.75C186.58,-460.75 67.17,-460.75 67.17,-460.75 63.21,-460.75 59.25,-456.79 59.25,-452.83 59.25,-452.83 59.25,-444.92 59.25,-444.92 59.25,-440.96 63.21,-437 67.17,-437 67.17,-437 186.58,-437 186.58,-437 190.54,-437 194.5,-440.96 194.5,-444.92 194.5,-444.92 194.5,-452.83 194.5,-452.83 194.5,-456.79 190.54,-460.75 186.58,-460.75"/>
<text xml:space="preserve" text-anchor="middle" x="126.88" y="-443.45" font-family="Arial" font-size="14.00" fill="#cfffac">front/src/api/client.js</text>
</g>
<!-- front/vite.config.js -->
<g id="node47" class="node">
<title>front/vite.config.js</title>
<path fill="none" stroke="#cfffac" d="M179.46,-502.75C179.46,-502.75 74.29,-502.75 74.29,-502.75 70.33,-502.75 66.38,-498.79 66.38,-494.83 66.38,-494.83 66.38,-486.92 66.38,-486.92 66.38,-482.96 70.33,-479 74.29,-479 74.29,-479 179.46,-479 179.46,-479 183.42,-479 187.38,-482.96 187.38,-486.92 187.38,-486.92 187.38,-494.83 187.38,-494.83 187.38,-498.79 183.42,-502.75 179.46,-502.75"/>
<text xml:space="preserve" text-anchor="middle" x="126.88" y="-485.45" font-family="Arial" font-size="14.00" fill="#cfffac">front/vite.config.js</text>
</g>
</g>
</svg>
